<svg width="72" height="72" viewBox="0 0 72 72" fill="none" xmlns="http://www.w3.org/2000/svg">
<path d="M33.7312 45.6632C33.8874 45.507 33.8874 45.2537 33.7312 45.0975L19.4512 30.8175C18.0253 29.3916 18.0253 27.0799 19.4512 25.654L33.7312 11.374C33.8874 11.2178 33.8874 10.9645 33.7312 10.8083L30.5049 7.58199C29.079 6.15614 26.7673 6.15614 25.3414 7.58199L7.2694 25.654C5.84355 27.0799 5.84355 29.3916 7.2694 30.8175L25.3414 48.8895C26.7673 50.3154 29.079 50.3154 30.5049 48.8895L33.7312 45.6632Z" fill="#8DB7FF"/>
<g style="mix-blend-mode:multiply">
<path d="M60.9517 26.9449C61.6647 27.6578 61.6647 28.8137 60.9517 29.5266L45.4614 45.017C44.7485 45.7299 43.5926 45.7299 42.8797 45.0169L26.0985 28.2358L42.8797 11.4546C43.5926 10.7417 44.7485 10.7417 45.4614 11.4546L60.9517 26.9449ZM64.8243 30.8175C66.2502 29.3916 66.2502 27.0799 64.8243 25.654L46.7523 7.582C45.3264 6.15615 43.0147 6.15615 41.5888 7.582L22.2259 26.9449C21.513 27.6578 21.513 28.8137 22.2259 29.5266L41.5888 48.8895C43.0147 50.3154 45.3264 50.3154 46.7523 48.8895L64.8243 30.8175Z" fill="#3881F7"/>
</g>
<path fill-rule="evenodd" clip-rule="evenodd" d="M38.6312 15.705L41.5933 12.7429L39.0115 10.1611L36.0494 13.1232L38.6312 15.705Z" fill="#3881F7"/>
<path d="M31.4333 13.6719L25.3424 7.58097C26.7684 6.15614 29.0794 6.15648 30.5049 7.58199L33.7312 10.8083C33.8874 10.9645 33.8874 11.2178 33.7312 11.374L31.4333 13.6719Z" fill="#354492"/>
<path fill-rule="evenodd" clip-rule="evenodd" d="M36.0483 38.1842L45.7136 28.5189C45.8698 28.3627 45.8698 28.1094 45.7136 27.9532L36.0483 18.288L38.63 15.7062L49.8683 26.9445C50.5812 27.6574 50.5812 28.8133 49.8683 29.5262L38.6293 40.7652L36.0483 38.1842Z" fill="#354492"/>
<path d="M60.9543 26.9448C61.6672 27.6577 61.6672 28.8136 60.9543 29.5265L45.464 45.0168C44.7511 45.7297 43.5952 45.7297 42.8823 45.0168L26.3839 28.5185C26.2277 28.3623 26.2277 28.109 26.3839 27.9528L42.8823 11.4545C43.5952 10.7415 44.7511 10.7415 45.464 11.4545L60.9543 26.9448ZM64.8269 30.8174C66.2527 29.3915 66.2527 27.0798 64.8269 25.6539L46.7549 7.58187C45.329 6.15603 43.0173 6.15603 41.5914 7.58187L22.2285 26.9448C21.5156 27.6577 21.5156 28.8136 22.2285 29.5265L41.5914 48.8894C43.0173 50.3153 45.329 50.3153 46.7549 48.8894L64.8269 30.8174Z" fill="#3881F7"/>
<path d="M20.9325 65.341C19.8765 65.341 18.8565 65.221 17.8725 64.981C16.9462 64.7551 16.1742 64.4654 15.5563 64.1119C15.4908 64.0744 15.4653 63.9933 15.4958 63.9242L16.7428 61.1021C16.7789 61.0204 16.8779 60.9883 16.9561 61.0315C17.5177 61.3418 18.1352 61.5963 18.8085 61.795C19.5525 61.999 20.2725 62.101 20.9685 62.101C21.3765 62.101 21.6945 62.077 21.9225 62.029C22.1625 61.969 22.3365 61.891 22.4445 61.795C22.5525 61.687 22.6065 61.561 22.6065 61.417C22.6065 61.189 22.4805 61.009 22.2285 60.877C21.9765 60.745 21.6405 60.637 21.2205 60.553C20.8125 60.457 20.3625 60.361 19.8705 60.265C19.3785 60.157 18.8805 60.019 18.3765 59.851C17.8845 59.683 17.4285 59.461 17.0085 59.185C16.6005 58.909 16.2705 58.549 16.0185 58.105C15.7665 57.649 15.6405 57.085 15.6405 56.413C15.6405 55.633 15.8565 54.925 16.2885 54.289C16.7325 53.641 17.3865 53.125 18.2505 52.741C19.1265 52.357 20.2125 52.165 21.5085 52.165C22.3605 52.165 23.2005 52.255 24.0285 52.435C24.8081 52.6045 25.5133 52.8591 26.144 53.1988C26.2108 53.2348 26.2386 53.3158 26.2095 53.3859L25.0442 56.1924C25.0108 56.2727 24.9164 56.3078 24.838 56.27C24.2649 55.9933 23.707 55.7829 23.1645 55.639C22.5885 55.483 22.0245 55.405 21.4725 55.405C21.0645 55.405 20.7405 55.441 20.5005 55.513C20.2605 55.585 20.0865 55.681 19.9785 55.801C19.8825 55.921 19.8345 56.053 19.8345 56.197C19.8345 56.413 19.9605 56.587 20.2125 56.719C20.4645 56.839 20.7945 56.941 21.2025 57.025C21.6225 57.109 22.0785 57.199 22.5705 57.295C23.0745 57.391 23.5725 57.523 24.0645 57.691C24.5565 57.859 25.0065 58.081 25.4145 58.357C25.8345 58.633 26.1705 58.993 26.4225 59.437C26.6745 59.881 26.8005 60.433 26.8005 61.093C26.8005 61.861 26.5785 62.569 26.1345 63.217C25.7025 63.853 25.0545 64.369 24.1905 64.765C23.3265 65.149 22.2405 65.341 20.9325 65.341Z" fill="#354492"/>
<path d="M35.5005 65.341C34.4925 65.341 33.5565 65.185 32.6925 64.873C31.8405 64.549 31.0965 64.093 30.4605 63.505C29.8365 62.917 29.3505 62.221 29.0025 61.417C28.6545 60.613 28.4805 59.725 28.4805 58.753C28.4805 57.781 28.6545 56.893 29.0025 56.089C29.3505 55.285 29.8365 54.589 30.4605 54.001C31.0965 53.413 31.8405 52.963 32.6925 52.651C33.5565 52.327 34.4925 52.165 35.5005 52.165C36.7365 52.165 37.8285 52.381 38.7765 52.813C39.6931 53.2255 40.4565 53.813 41.0668 54.5755C41.1158 54.6367 41.1073 54.7254 41.0488 54.7776L38.589 56.9732C38.5247 57.0306 38.4255 57.022 38.3698 56.9562C38.0242 56.5475 37.6438 56.2285 37.2285 55.999C36.7845 55.735 36.2805 55.603 35.7165 55.603C35.2725 55.603 34.8705 55.675 34.5105 55.819C34.1505 55.963 33.8385 56.173 33.5745 56.449C33.3225 56.725 33.1245 57.061 32.9805 57.457C32.8365 57.841 32.7645 58.273 32.7645 58.753C32.7645 59.233 32.8365 59.671 32.9805 60.067C33.1245 60.451 33.3225 60.781 33.5745 61.057C33.8385 61.333 34.1505 61.543 34.5105 61.687C34.8705 61.831 35.2725 61.903 35.7165 61.903C36.2805 61.903 36.7845 61.777 37.2285 61.525C37.6438 61.2846 38.0243 60.9595 38.3699 60.5499C38.4255 60.484 38.5247 60.4754 38.589 60.5328L41.048 62.7278C41.1069 62.7803 41.1151 62.8695 41.0654 62.9307C40.4554 63.682 39.6924 64.2694 38.7765 64.693C37.8285 65.125 36.7365 65.341 35.5005 65.341Z" fill="#354492"/>
<path d="M43.3845 65.053C43.3017 65.053 43.2345 64.9858 43.2345 64.903V52.603C43.2345 52.5202 43.3017 52.453 43.3845 52.453H49.4445C50.8485 52.453 52.0845 52.711 53.1525 53.227C54.2205 53.731 55.0545 54.451 55.6545 55.387C56.2545 56.323 56.5545 57.439 56.5545 58.735C56.5545 60.043 56.2545 61.171 55.6545 62.119C55.0545 63.055 54.2205 63.781 53.1525 64.297C52.0845 64.801 50.8485 65.053 49.4445 65.053H43.3845ZM47.4825 61.591C47.4825 61.6738 47.5497 61.741 47.6325 61.741H49.2645C49.8645 61.741 50.3865 61.627 50.8305 61.399C51.2865 61.171 51.6405 60.835 51.8925 60.391C52.1445 59.935 52.2705 59.383 52.2705 58.735C52.2705 58.099 52.1445 57.559 51.8925 57.115C51.6405 56.671 51.2865 56.335 50.8305 56.107C50.3865 55.879 49.8645 55.765 49.2645 55.765H47.6325C47.5497 55.765 47.4825 55.8322 47.4825 55.915V61.591Z" fill="#354492"/>
</svg>
